<mxfile host="Electron" modified="2023-06-29T16:06:20.336Z" agent="Mozilla/5.0 (X11; Linux x86_64) AppleWebKit/537.36 (KHTML, like Gecko) draw.io/21.2.8 Chrome/112.0.5615.165 Electron/24.2.0 Safari/537.36" etag="WBN1g9ucx0jSzWKIvUU3" version="21.2.8" type="device">
  <diagram id="ojG4NxqEQ8N0nsv62VIc" name="Page-1">
    <mxGraphModel dx="1034" dy="1262" grid="0" gridSize="10" guides="1" tooltips="1" connect="1" arrows="1" fold="1" page="0" pageScale="1" pageWidth="1169" pageHeight="827" math="0" shadow="0">
      <root>
        <mxCell id="0" />
        <mxCell id="1" parent="0" />
        <mxCell id="IgrSUTCAtPYophplIJAG-5" value="" style="endArrow=none;dashed=1;html=1;rounded=0;" parent="1" target="IgrSUTCAtPYophplIJAG-4" edge="1">
          <mxGeometry width="50" height="50" relative="1" as="geometry">
            <mxPoint x="1536" y="569" as="sourcePoint" />
            <mxPoint x="1538" y="18" as="targetPoint" />
          </mxGeometry>
        </mxCell>
        <mxCell id="UDjU0qQiVwqluYuO5CM7-68" value="" style="rounded=0;whiteSpace=wrap;html=1;fillColor=none;" parent="1" vertex="1">
          <mxGeometry x="835" y="311" width="1128" height="209" as="geometry" />
        </mxCell>
        <mxCell id="UDjU0qQiVwqluYuO5CM7-69" value="" style="rounded=0;whiteSpace=wrap;html=1;fillColor=none;" parent="1" vertex="1">
          <mxGeometry x="815" y="130" width="1166" height="404" as="geometry" />
        </mxCell>
        <mxCell id="UDjU0qQiVwqluYuO5CM7-3" value="" style="rounded=0;whiteSpace=wrap;html=1;" parent="1" vertex="1">
          <mxGeometry x="867" y="-46" width="120" height="60" as="geometry" />
        </mxCell>
        <mxCell id="UDjU0qQiVwqluYuO5CM7-1" value="" style="endArrow=none;dashed=1;html=1;rounded=0;" parent="1" edge="1">
          <mxGeometry width="50" height="50" relative="1" as="geometry">
            <mxPoint x="926" y="565" as="sourcePoint" />
            <mxPoint x="928" y="14" as="targetPoint" />
          </mxGeometry>
        </mxCell>
        <mxCell id="UDjU0qQiVwqluYuO5CM7-2" value="Client" style="text;html=1;strokeColor=none;fillColor=none;align=center;verticalAlign=middle;whiteSpace=wrap;rounded=0;" parent="1" vertex="1">
          <mxGeometry x="897" y="-29" width="60" height="30" as="geometry" />
        </mxCell>
        <mxCell id="UDjU0qQiVwqluYuO5CM7-4" value="" style="rounded=0;whiteSpace=wrap;html=1;" parent="1" vertex="1">
          <mxGeometry x="1062" y="-44" width="120" height="60" as="geometry" />
        </mxCell>
        <mxCell id="UDjU0qQiVwqluYuO5CM7-5" value="Network&lt;br&gt;Handler" style="text;html=1;strokeColor=none;fillColor=none;align=center;verticalAlign=middle;whiteSpace=wrap;rounded=0;" parent="1" vertex="1">
          <mxGeometry x="1092" y="-27" width="60" height="30" as="geometry" />
        </mxCell>
        <mxCell id="UDjU0qQiVwqluYuO5CM7-6" value="" style="rounded=0;whiteSpace=wrap;html=1;" parent="1" vertex="1">
          <mxGeometry x="1268" y="-42" width="120" height="60" as="geometry" />
        </mxCell>
        <mxCell id="UDjU0qQiVwqluYuO5CM7-7" value="ClientHandler" style="text;html=1;strokeColor=none;fillColor=none;align=center;verticalAlign=middle;whiteSpace=wrap;rounded=0;" parent="1" vertex="1">
          <mxGeometry x="1298" y="-25" width="60" height="30" as="geometry" />
        </mxCell>
        <mxCell id="UDjU0qQiVwqluYuO5CM7-8" value="" style="rounded=0;whiteSpace=wrap;html=1;" parent="1" vertex="1">
          <mxGeometry x="1477" y="-42" width="120" height="60" as="geometry" />
        </mxCell>
        <mxCell id="UDjU0qQiVwqluYuO5CM7-9" value="Server" style="text;html=1;strokeColor=none;fillColor=none;align=center;verticalAlign=middle;whiteSpace=wrap;rounded=0;" parent="1" vertex="1">
          <mxGeometry x="1507" y="-25" width="60" height="30" as="geometry" />
        </mxCell>
        <mxCell id="UDjU0qQiVwqluYuO5CM7-10" value="" style="rounded=0;whiteSpace=wrap;html=1;" parent="1" vertex="1">
          <mxGeometry x="1865" y="-42" width="120" height="60" as="geometry" />
        </mxCell>
        <mxCell id="UDjU0qQiVwqluYuO5CM7-11" value="Creation&lt;br&gt;Controller" style="text;html=1;strokeColor=none;fillColor=none;align=center;verticalAlign=middle;whiteSpace=wrap;rounded=0;" parent="1" vertex="1">
          <mxGeometry x="1895" y="-25" width="60" height="30" as="geometry" />
        </mxCell>
        <mxCell id="UDjU0qQiVwqluYuO5CM7-12" value="" style="endArrow=none;dashed=1;html=1;rounded=0;" parent="1" edge="1">
          <mxGeometry width="50" height="50" relative="1" as="geometry">
            <mxPoint x="1123" y="569" as="sourcePoint" />
            <mxPoint x="1125" y="16" as="targetPoint" />
          </mxGeometry>
        </mxCell>
        <mxCell id="UDjU0qQiVwqluYuO5CM7-13" value="" style="endArrow=none;dashed=1;html=1;rounded=0;startArrow=none;" parent="1" source="UDjU0qQiVwqluYuO5CM7-75" edge="1">
          <mxGeometry width="50" height="50" relative="1" as="geometry">
            <mxPoint x="1327" y="570" as="sourcePoint" />
            <mxPoint x="1329" y="16" as="targetPoint" />
          </mxGeometry>
        </mxCell>
        <mxCell id="UDjU0qQiVwqluYuO5CM7-14" value="" style="endArrow=none;dashed=1;html=1;rounded=0;startArrow=none;" parent="1" source="IgrSUTCAtPYophplIJAG-4" edge="1">
          <mxGeometry width="50" height="50" relative="1" as="geometry">
            <mxPoint x="1536" y="569" as="sourcePoint" />
            <mxPoint x="1538" y="18" as="targetPoint" />
          </mxGeometry>
        </mxCell>
        <mxCell id="UDjU0qQiVwqluYuO5CM7-15" value="" style="endArrow=none;dashed=1;html=1;rounded=0;" parent="1" edge="1">
          <mxGeometry width="50" height="50" relative="1" as="geometry">
            <mxPoint x="1924" y="572" as="sourcePoint" />
            <mxPoint x="1926" y="18" as="targetPoint" />
          </mxGeometry>
        </mxCell>
        <mxCell id="UDjU0qQiVwqluYuO5CM7-16" value="" style="endArrow=classic;html=1;rounded=0;" parent="1" edge="1">
          <mxGeometry width="50" height="50" relative="1" as="geometry">
            <mxPoint x="932" y="62" as="sourcePoint" />
            <mxPoint x="1124" y="62" as="targetPoint" />
          </mxGeometry>
        </mxCell>
        <mxCell id="UDjU0qQiVwqluYuO5CM7-18" value="sendInput(nickname)" style="text;html=1;strokeColor=none;fillColor=none;align=center;verticalAlign=middle;whiteSpace=wrap;rounded=0;strokeWidth=1;" parent="1" vertex="1">
          <mxGeometry x="994" y="32" width="60" height="30" as="geometry" />
        </mxCell>
        <mxCell id="UDjU0qQiVwqluYuO5CM7-26" value="" style="endArrow=classic;html=1;rounded=0;" parent="1" edge="1">
          <mxGeometry width="50" height="50" relative="1" as="geometry">
            <mxPoint x="1314" y="171" as="sourcePoint" />
            <mxPoint x="1134" y="171" as="targetPoint" />
          </mxGeometry>
        </mxCell>
        <mxCell id="UDjU0qQiVwqluYuO5CM7-28" value="requestNickname()" style="text;html=1;strokeColor=none;fillColor=none;align=center;verticalAlign=middle;whiteSpace=wrap;rounded=0;strokeWidth=1;" parent="1" vertex="1">
          <mxGeometry x="1203" y="144.5" width="60" height="30" as="geometry" />
        </mxCell>
        <mxCell id="UDjU0qQiVwqluYuO5CM7-29" value="" style="endArrow=classic;html=1;rounded=0;" parent="1" edge="1">
          <mxGeometry width="50" height="50" relative="1" as="geometry">
            <mxPoint x="1136" y="202.5" as="sourcePoint" />
            <mxPoint x="1319" y="202.5" as="targetPoint" />
          </mxGeometry>
        </mxCell>
        <mxCell id="UDjU0qQiVwqluYuO5CM7-30" value="inputNickname(nickname)" style="text;html=1;strokeColor=none;fillColor=none;align=center;verticalAlign=middle;whiteSpace=wrap;rounded=0;" parent="1" vertex="1">
          <mxGeometry x="1203" y="174.5" width="60" height="30" as="geometry" />
        </mxCell>
        <mxCell id="UDjU0qQiVwqluYuO5CM7-32" value="notifyObservers(ip, nickname)" style="text;html=1;strokeColor=none;fillColor=none;align=center;verticalAlign=middle;whiteSpace=wrap;rounded=0;" parent="1" vertex="1">
          <mxGeometry x="1335" y="186.5" width="187" height="30" as="geometry" />
        </mxCell>
        <mxCell id="UDjU0qQiVwqluYuO5CM7-37" value="" style="endArrow=classic;html=1;rounded=0;entryX=0;entryY=0;entryDx=0;entryDy=0;" parent="1" edge="1" target="UDjU0qQiVwqluYuO5CM7-78">
          <mxGeometry width="50" height="50" relative="1" as="geometry">
            <mxPoint x="1336" y="218.5" as="sourcePoint" />
            <mxPoint x="1682" y="219" as="targetPoint" />
          </mxGeometry>
        </mxCell>
        <mxCell id="UDjU0qQiVwqluYuO5CM7-39" value="" style="endArrow=classic;html=1;rounded=0;" parent="1" edge="1">
          <mxGeometry width="50" height="50" relative="1" as="geometry">
            <mxPoint x="1937" y="227.5" as="sourcePoint" />
            <mxPoint x="1939" y="268.5" as="targetPoint" />
            <Array as="points">
              <mxPoint x="1973" y="227.5" />
              <mxPoint x="1973" y="268.5" />
            </Array>
          </mxGeometry>
        </mxCell>
        <mxCell id="UDjU0qQiVwqluYuO5CM7-40" value="addPlayer(nickname)" style="text;html=1;strokeColor=none;fillColor=none;align=center;verticalAlign=middle;whiteSpace=wrap;rounded=0;" parent="1" vertex="1">
          <mxGeometry x="2015" y="237.5" width="60" height="30" as="geometry" />
        </mxCell>
        <mxCell id="UDjU0qQiVwqluYuO5CM7-42" value="Option" style="text;html=1;strokeColor=none;fillColor=none;align=center;verticalAlign=middle;whiteSpace=wrap;rounded=0;" parent="1" vertex="1">
          <mxGeometry x="815" y="140" width="60" height="30" as="geometry" />
        </mxCell>
        <mxCell id="UDjU0qQiVwqluYuO5CM7-43" value="Spot available" style="text;html=1;strokeColor=none;fillColor=none;align=center;verticalAlign=middle;whiteSpace=wrap;rounded=0;" parent="1" vertex="1">
          <mxGeometry x="847" y="189" width="60" height="30" as="geometry" />
        </mxCell>
        <mxCell id="UDjU0qQiVwqluYuO5CM7-46" value="Option" style="text;html=1;strokeColor=none;fillColor=none;align=center;verticalAlign=middle;whiteSpace=wrap;rounded=0;" parent="1" vertex="1">
          <mxGeometry x="835" y="325" width="60" height="30" as="geometry" />
        </mxCell>
        <mxCell id="UDjU0qQiVwqluYuO5CM7-47" value="First player" style="text;html=1;strokeColor=none;fillColor=none;align=center;verticalAlign=middle;whiteSpace=wrap;rounded=0;" parent="1" vertex="1">
          <mxGeometry x="849" y="363" width="60" height="30" as="geometry" />
        </mxCell>
        <mxCell id="UDjU0qQiVwqluYuO5CM7-50" value="" style="endArrow=classic;html=1;rounded=0;exitX=0.632;exitY=0.378;exitDx=0;exitDy=0;exitPerimeter=0;" parent="1" edge="1">
          <mxGeometry x="1213" y="154.5" width="50" height="50" relative="1" as="geometry">
            <mxPoint x="1526.9720000000002" y="343.096" as="sourcePoint" />
            <mxPoint x="1330.02" y="343" as="targetPoint" />
            <Array as="points" />
          </mxGeometry>
        </mxCell>
        <mxCell id="UDjU0qQiVwqluYuO5CM7-52" value="requestInput(playersNumber)" style="text;html=1;strokeColor=none;fillColor=none;align=center;verticalAlign=middle;whiteSpace=wrap;rounded=0;strokeWidth=1;" parent="1" vertex="1">
          <mxGeometry x="1402" y="315" width="60" height="30" as="geometry" />
        </mxCell>
        <mxCell id="UDjU0qQiVwqluYuO5CM7-55" value="" style="endArrow=classic;html=1;rounded=0;" parent="1" edge="1">
          <mxGeometry width="50" height="50" relative="1" as="geometry">
            <mxPoint x="1310" y="370" as="sourcePoint" />
            <mxPoint x="1132" y="368" as="targetPoint" />
          </mxGeometry>
        </mxCell>
        <mxCell id="UDjU0qQiVwqluYuO5CM7-56" value="requestPlayersNumber()" style="text;html=1;strokeColor=none;fillColor=none;align=center;verticalAlign=middle;whiteSpace=wrap;rounded=0;" parent="1" vertex="1">
          <mxGeometry x="1191" y="339" width="60" height="30" as="geometry" />
        </mxCell>
        <mxCell id="UDjU0qQiVwqluYuO5CM7-57" value="" style="endArrow=classic;html=1;rounded=0;" parent="1" edge="1">
          <mxGeometry width="50" height="50" relative="1" as="geometry">
            <mxPoint x="1113.5" y="392" as="sourcePoint" />
            <mxPoint x="934.5" y="392" as="targetPoint" />
          </mxGeometry>
        </mxCell>
        <mxCell id="UDjU0qQiVwqluYuO5CM7-58" value="requestInput(playersNumber)" style="text;html=1;strokeColor=none;fillColor=none;align=center;verticalAlign=middle;whiteSpace=wrap;rounded=0;" parent="1" vertex="1">
          <mxGeometry x="927" y="363" width="198" height="30" as="geometry" />
        </mxCell>
        <mxCell id="UDjU0qQiVwqluYuO5CM7-59" value="" style="endArrow=classic;html=1;rounded=0;" parent="1" edge="1">
          <mxGeometry width="50" height="50" relative="1" as="geometry">
            <mxPoint x="937.5" y="425" as="sourcePoint" />
            <mxPoint x="1110.5" y="425" as="targetPoint" />
          </mxGeometry>
        </mxCell>
        <mxCell id="UDjU0qQiVwqluYuO5CM7-60" value="sendInput(playersNumber)" style="text;html=1;strokeColor=none;fillColor=none;align=center;verticalAlign=middle;whiteSpace=wrap;rounded=0;" parent="1" vertex="1">
          <mxGeometry x="990.5" y="398" width="60" height="30" as="geometry" />
        </mxCell>
        <mxCell id="UDjU0qQiVwqluYuO5CM7-61" value="" style="endArrow=classic;html=1;rounded=0;" parent="1" edge="1">
          <mxGeometry width="50" height="50" relative="1" as="geometry">
            <mxPoint x="1140" y="443" as="sourcePoint" />
            <mxPoint x="1312" y="443" as="targetPoint" />
          </mxGeometry>
        </mxCell>
        <mxCell id="UDjU0qQiVwqluYuO5CM7-62" value="inputPlayersNumber(number)" style="text;html=1;strokeColor=none;fillColor=none;align=center;verticalAlign=middle;whiteSpace=wrap;rounded=0;" parent="1" vertex="1">
          <mxGeometry x="1191" y="416" width="60" height="30" as="geometry" />
        </mxCell>
        <mxCell id="UDjU0qQiVwqluYuO5CM7-64" value="notifyObservers(playersNumber)" style="text;html=1;strokeColor=none;fillColor=none;align=center;verticalAlign=middle;whiteSpace=wrap;rounded=0;" parent="1" vertex="1">
          <mxGeometry x="1338.5" y="428" width="187" height="30" as="geometry" />
        </mxCell>
        <mxCell id="UDjU0qQiVwqluYuO5CM7-65" value="" style="endArrow=classic;html=1;rounded=0;" parent="1" edge="1">
          <mxGeometry width="50" height="50" relative="1" as="geometry">
            <mxPoint x="1332" y="458" as="sourcePoint" />
            <mxPoint x="1728" y="458" as="targetPoint" />
          </mxGeometry>
        </mxCell>
        <mxCell id="UDjU0qQiVwqluYuO5CM7-66" value="" style="endArrow=classic;html=1;rounded=0;" parent="1" edge="1">
          <mxGeometry width="50" height="50" relative="1" as="geometry">
            <mxPoint x="1939" y="454" as="sourcePoint" />
            <mxPoint x="1941" y="495" as="targetPoint" />
            <Array as="points">
              <mxPoint x="1975" y="454" />
              <mxPoint x="1975" y="495" />
            </Array>
          </mxGeometry>
        </mxCell>
        <mxCell id="UDjU0qQiVwqluYuO5CM7-67" value="setPlayersNumber(number)" style="text;html=1;strokeColor=none;fillColor=none;align=center;verticalAlign=middle;whiteSpace=wrap;rounded=0;" parent="1" vertex="1">
          <mxGeometry x="2032" y="466" width="60" height="30" as="geometry" />
        </mxCell>
        <mxCell id="UDjU0qQiVwqluYuO5CM7-70" value="" style="rounded=0;whiteSpace=wrap;html=1;fillColor=default;" parent="1" vertex="1">
          <mxGeometry x="923" y="347" width="8" height="116" as="geometry" />
        </mxCell>
        <mxCell id="UDjU0qQiVwqluYuO5CM7-71" value="" style="rounded=0;whiteSpace=wrap;html=1;fillColor=default;" parent="1" vertex="1">
          <mxGeometry x="923" y="37" width="8" height="36" as="geometry" />
        </mxCell>
        <mxCell id="UDjU0qQiVwqluYuO5CM7-72" value="" style="rounded=0;whiteSpace=wrap;html=1;fillColor=default;" parent="1" vertex="1">
          <mxGeometry x="1122" y="35" width="8" height="178" as="geometry" />
        </mxCell>
        <mxCell id="UDjU0qQiVwqluYuO5CM7-74" value="" style="rounded=0;whiteSpace=wrap;html=1;fillColor=default;" parent="1" vertex="1">
          <mxGeometry x="1122" y="334" width="8" height="123" as="geometry" />
        </mxCell>
        <mxCell id="UDjU0qQiVwqluYuO5CM7-78" value="" style="rounded=0;whiteSpace=wrap;html=1;fillColor=default;" parent="1" vertex="1">
          <mxGeometry x="1921" y="219" width="8" height="62" as="geometry" />
        </mxCell>
        <mxCell id="UDjU0qQiVwqluYuO5CM7-79" value="" style="rounded=0;whiteSpace=wrap;html=1;fillColor=default;" parent="1" vertex="1">
          <mxGeometry x="1921" y="446" width="8" height="62" as="geometry" />
        </mxCell>
        <mxCell id="UDjU0qQiVwqluYuO5CM7-75" value="" style="rounded=0;whiteSpace=wrap;html=1;fillColor=default;" parent="1" vertex="1">
          <mxGeometry x="1324" y="139" width="8" height="98.5" as="geometry" />
        </mxCell>
        <mxCell id="UDjU0qQiVwqluYuO5CM7-81" value="" style="endArrow=none;dashed=1;html=1;rounded=0;" parent="1" target="UDjU0qQiVwqluYuO5CM7-75" edge="1">
          <mxGeometry width="50" height="50" relative="1" as="geometry">
            <mxPoint x="1327" y="570" as="sourcePoint" />
            <mxPoint x="1329" y="16" as="targetPoint" />
          </mxGeometry>
        </mxCell>
        <mxCell id="UDjU0qQiVwqluYuO5CM7-76" value="" style="rounded=0;whiteSpace=wrap;html=1;fillColor=default;" parent="1" vertex="1">
          <mxGeometry x="1324" y="311" width="8" height="178" as="geometry" />
        </mxCell>
        <mxCell id="IgrSUTCAtPYophplIJAG-1" value="" style="endArrow=classic;html=1;rounded=0;" parent="1" edge="1">
          <mxGeometry width="50" height="50" relative="1" as="geometry">
            <mxPoint x="1530.5" y="153.5" as="sourcePoint" />
            <mxPoint x="1338.5" y="156.5" as="targetPoint" />
          </mxGeometry>
        </mxCell>
        <mxCell id="IgrSUTCAtPYophplIJAG-2" value="start()" style="text;html=1;strokeColor=none;fillColor=none;align=center;verticalAlign=middle;whiteSpace=wrap;rounded=0;strokeWidth=1;" parent="1" vertex="1">
          <mxGeometry x="1398.5" y="130" width="60" height="30" as="geometry" />
        </mxCell>
        <mxCell id="IgrSUTCAtPYophplIJAG-3" value="When a new connection is received, the server creates a new ClientHandler on a different thread.&amp;nbsp;" style="text;html=1;strokeColor=none;fillColor=none;align=center;verticalAlign=middle;whiteSpace=wrap;rounded=0;" parent="1" vertex="1">
          <mxGeometry x="741" y="42" width="158" height="72" as="geometry" />
        </mxCell>
        <mxCell id="IgrSUTCAtPYophplIJAG-4" value="" style="rounded=0;whiteSpace=wrap;html=1;fillColor=default;" parent="1" vertex="1">
          <mxGeometry x="1533" y="68" width="8" height="98.5" as="geometry" />
        </mxCell>
        <mxCell id="IgrSUTCAtPYophplIJAG-6" value="" style="rounded=0;whiteSpace=wrap;html=1;fillColor=default;" parent="1" vertex="1">
          <mxGeometry x="1532" y="329" width="9" height="34" as="geometry" />
        </mxCell>
        <mxCell id="VXxsNw3TijWNckQNv45h-1" value="Controller" style="rounded=0;whiteSpace=wrap;html=1;" vertex="1" parent="1">
          <mxGeometry x="1674" y="-44" width="120" height="60" as="geometry" />
        </mxCell>
        <mxCell id="VXxsNw3TijWNckQNv45h-2" value="" style="endArrow=none;dashed=1;html=1;rounded=0;" edge="1" parent="1" source="VXxsNw3TijWNckQNv45h-3">
          <mxGeometry width="50" height="50" relative="1" as="geometry">
            <mxPoint x="1733" y="570" as="sourcePoint" />
            <mxPoint x="1735" y="16" as="targetPoint" />
          </mxGeometry>
        </mxCell>
        <mxCell id="VXxsNw3TijWNckQNv45h-4" value="" style="endArrow=none;dashed=1;html=1;rounded=0;" edge="1" parent="1" target="VXxsNw3TijWNckQNv45h-3">
          <mxGeometry width="50" height="50" relative="1" as="geometry">
            <mxPoint x="1733" y="570" as="sourcePoint" />
            <mxPoint x="1735" y="16" as="targetPoint" />
          </mxGeometry>
        </mxCell>
        <mxCell id="VXxsNw3TijWNckQNv45h-3" value="" style="rounded=0;whiteSpace=wrap;html=1;fillColor=default;" vertex="1" parent="1">
          <mxGeometry x="1730" y="252" width="8" height="21" as="geometry" />
        </mxCell>
        <mxCell id="VXxsNw3TijWNckQNv45h-5" value="" style="rounded=0;whiteSpace=wrap;html=1;fillColor=default;" vertex="1" parent="1">
          <mxGeometry x="1730" y="446" width="8" height="62" as="geometry" />
        </mxCell>
        <mxCell id="VXxsNw3TijWNckQNv45h-7" value="" style="rounded=0;whiteSpace=wrap;html=1;fillColor=default;" vertex="1" parent="1">
          <mxGeometry x="1533" y="222" width="9" height="34" as="geometry" />
        </mxCell>
        <mxCell id="VXxsNw3TijWNckQNv45h-8" value="" style="endArrow=classic;html=1;rounded=0;" edge="1" parent="1">
          <mxGeometry width="50" height="50" relative="1" as="geometry">
            <mxPoint x="1340.5" y="229" as="sourcePoint" />
            <mxPoint x="1523.5" y="229" as="targetPoint" />
          </mxGeometry>
        </mxCell>
        <mxCell id="VXxsNw3TijWNckQNv45h-9" value="" style="endArrow=classic;html=1;rounded=0;exitX=1;exitY=0.75;exitDx=0;exitDy=0;" edge="1" parent="1" source="VXxsNw3TijWNckQNv45h-7">
          <mxGeometry width="50" height="50" relative="1" as="geometry">
            <mxPoint x="1381" y="304" as="sourcePoint" />
            <mxPoint x="1542" y="248" as="targetPoint" />
          </mxGeometry>
        </mxCell>
        <mxCell id="VXxsNw3TijWNckQNv45h-10" value="" style="endArrow=classic;html=1;rounded=0;" edge="1" parent="1">
          <mxGeometry width="50" height="50" relative="1" as="geometry">
            <mxPoint x="1547" y="252" as="sourcePoint" />
            <mxPoint x="1730" y="252" as="targetPoint" />
          </mxGeometry>
        </mxCell>
        <mxCell id="VXxsNw3TijWNckQNv45h-12" value="addClient(clientHandler)" style="text;html=1;strokeColor=none;fillColor=none;align=center;verticalAlign=middle;whiteSpace=wrap;rounded=0;" vertex="1" parent="1">
          <mxGeometry x="1606" y="222" width="60" height="30" as="geometry" />
        </mxCell>
      </root>
    </mxGraphModel>
  </diagram>
</mxfile>
